<?xml version="1.0" encoding="utf-8"?><svg viewBox="0 0 30 30" xmlns="http://www.w3.org/2000/svg" xmlns:xlink="http://www.w3.org/1999/xlink"><style>:root>svg{display:none}:root>svg:target{display:block}</style><svg viewBox="0 0 25 18" id="burger" xmlns="http://www.w3.org/2000/svg"><path fill-rule="evenodd" clip-rule="evenodd" d="M0 1.5A1.5 1.5 0 011.5 0h22a1.5 1.5 0 010 3h-22A1.5 1.5 0 010 1.5zM0 9a1.5 1.5 0 011.5-1.5h22a1.5 1.5 0 010 3h-22A1.5 1.5 0 010 9zm0 7.5A1.5 1.5 0 011.5 15h22a1.5 1.5 0 010 3h-22A1.5 1.5 0 010 16.5z"/></svg><svg viewBox="0 0 30 30" id="facebook" xmlns="http://www.w3.org/2000/svg"><path d="M12 27V15H8v-4h4V8.852C12 4.785 13.981 3 17.361 3c1.619 0 2.475.12 2.88.175V7h-2.305C16.501 7 16 7.757 16 9.291V11h4.205l-.571 4H16v12h-4z"/></svg><svg viewBox="0 0 30 30" id="linkedin" xmlns="http://www.w3.org/2000/svg"><path d="M9 25H4V10h5v15zM6.501 8a2.5 2.5 0 110-5.001A2.5 2.5 0 016.5 8zM27 25h-4.807v-7.3c0-1.741-.033-3.98-2.499-3.98-2.503 0-2.888 1.896-2.888 3.854V25H12V9.989h4.614v2.051h.065c.642-1.18 2.211-2.424 4.551-2.424 4.87 0 5.77 3.109 5.77 7.151V25z"/></svg><svg viewBox="0 0 30 30" id="mail" xmlns="http://www.w3.org/2000/svg"><g clip-path="url(#da)"><path fill-rule="evenodd" clip-rule="evenodd" d="M29.5 6H.5l14.784 9.09L29.5 6zm-2.21 18V9.61l-12.016 7.308L2.768 9.629V24H27.29z"/></g><defs><clipPath id="da"><rect x="3.5" y="6" width="23" height="18" rx="1"/></clipPath></defs></svg><svg viewBox="0 0 30 30" id="twitter" xmlns="http://www.w3.org/2000/svg"><path d="M28 6.937c-.957.425-1.985.711-3.064.84a5.343 5.343 0 002.345-2.951 10.696 10.696 0 01-3.388 1.295 5.334 5.334 0 00-9.089 4.864A15.143 15.143 0 013.809 5.411a5.321 5.321 0 00-.721 2.683 5.33 5.33 0 002.372 4.439 5.323 5.323 0 01-2.416-.667v.067a5.335 5.335 0 004.279 5.23 5.336 5.336 0 01-2.409.092 5.34 5.34 0 004.983 3.705 10.699 10.699 0 01-6.625 2.284c-.43 0-.855-.025-1.273-.075a15.102 15.102 0 008.177 2.396c9.812 0 15.176-8.128 15.176-15.177 0-.231-.005-.461-.015-.69A10.855 10.855 0 0028 6.937z"/></svg></svg>